<svg width="56" height="55" viewBox="0 0 56 55" fill="none" xmlns="http://www.w3.org/2000/svg">
<rect width="56" height="55" fill="white"/>
<path d="M6.03802 29.008L17.367 40.671L15.319 53.865L0.0800171 38.175L6.03902 29.008H6.03802ZM13.625 17.336L19.973 23.877L17.751 38.197L7.15602 27.287L13.625 17.335V17.336ZM25.594 0.694L37.436 18.457L22.263 22.162L25.594 0.694ZM46.723 32.387L19.651 38.993L21.931 24.303L38.617 20.228L46.723 32.388V32.387ZM19.319 41.132L47.904 34.158L55.376 45.367L17.218 54.674L19.319 41.132V41.132ZM20.357 21.401L14.743 15.616L23.297 2.456L20.357 21.401V21.401Z" fill="black"/>
</svg>
